HIERARCHY
ROOT Hips
{
  OFFSET 0.606267 15.729 30.7291
  CHANNELS 6 Xposition Yposition Zposition Zrotation Xrotation Yrotation
  JOINT LHipJoint
  {
    OFFSET 0 0 0
    CHANNELS 6 Xposition Yposition Zposition Zrotation Xrotation Yrotation
    JOINT LeftUpLeg
    {
      OFFSET 1.36306 -1.79463 0.83929
      CHANNELS 6 Xposition Yposition Zposition Zrotation Xrotation Yrotation
      JOINT LeftLeg
      {
        OFFSET 2.44811 -6.72613 0
        CHANNELS 6 Xposition Yposition Zposition Zrotation Xrotation Yrotation
        JOINT LeftFoot
        {
          OFFSET 2.5622 -7.03959 0
          CHANNELS 6 Xposition Yposition Zposition Zrotation Xrotation Yrotation
          JOINT LeftToeBase
          {
            OFFSET 0.15764 -0.43311 2.32255
            CHANNELS 6 Xposition Yposition Zposition Zrotation Xrotation Yrotation
            End Site
            {
              OFFSET 0 0 0
            }
          }
        }
      }
    }
  }
  JOINT RHipJoint
  {
    OFFSET 0 0 0
    CHANNELS 6 Xposition Yposition Zposition Zrotation Xrotation Yrotation
    JOINT RightUpLeg
    {
      OFFSET -1.30552 -1.79463 0.83929
      CHANNELS 6 Xposition Yposition Zposition Zrotation Xrotation Yrotation
      JOINT RightLeg
      {
        OFFSET -2.54253 -6.98555 0
        CHANNELS 6 Xposition Yposition Zposition Zrotation Xrotation Yrotation
        JOINT RightFoot
        {
          OFFSET -2.56826 -7.05623 0
          CHANNELS 6 Xposition Yposition Zposition Zrotation Xrotation Yrotation
          JOINT RightToeBase
          {
            OFFSET -0.16473 -0.45259 2.36315
            CHANNELS 6 Xposition Yposition Zposition Zrotation Xrotation Yrotation
            End Site
            {
              OFFSET 0 0 0
            }
          }
        }
      }
    }
  }
  JOINT LowerBack
  {
    OFFSET 0 0 0
    CHANNELS 6 Xposition Yposition Zposition Zrotation Xrotation Yrotation
    JOINT Spine
    {
      OFFSET 0.02827 2.03559 -0.19338
      CHANNELS 6 Xposition Yposition Zposition Zrotation Xrotation Yrotation
      JOINT Spine1
      {
        OFFSET 0.05672 2.04885 -0.04275
        CHANNELS 6 Xposition Yposition Zposition Zrotation Xrotation Yrotation
        JOINT Neck
        {
          OFFSET 0 0 0
          CHANNELS 6 Xposition Yposition Zposition Zrotation Xrotation Yrotation
          JOINT Neck1
          {
            OFFSET -0.05417 1.74624 0.17202
            CHANNELS 6 Xposition Yposition Zposition Zrotation Xrotation Yrotation
            JOINT Head
            {
              OFFSET 0.10407 1.76136 -0.12397
              CHANNELS 6 Xposition Yposition Zposition Zrotation Xrotation Yrotation
              End Site
              {
                OFFSET 0 0 0
              }
            }
          }
        }
        JOINT LeftShoulder
        {
          OFFSET 0 0 0
          CHANNELS 6 Xposition Yposition Zposition Zrotation Xrotation Yrotation
          JOINT LeftArm
          {
            OFFSET 3.36241 1.20089 -0.31121
            CHANNELS 6 Xposition Yposition Zposition Zrotation Xrotation Yrotation
            JOINT LeftForeArm
            {
              OFFSET 4.983 0 0
              CHANNELS 6 Xposition Yposition Zposition Zrotation Xrotation Yrotation
              JOINT LeftHand
              {
                OFFSET 3.48356 0 0
                CHANNELS 6 Xposition Yposition Zposition Zrotation Xrotation Yrotation
                JOINT LeftFingerBase
                {
                  OFFSET 0 0 0
                  CHANNELS 6 Xposition Yposition Zposition Zrotation Xrotation Yrotation
                  JOINT LeftHandIndex1
                  {
                    OFFSET 0.71526 0 0
                    CHANNELS 6 Xposition Yposition Zposition Zrotation Xrotation Yrotation
                    End Site
                    {
                      OFFSET 0 0 0
                    }
                  }
                }
                JOINT LThumb
                {
                  OFFSET 0 0 0
                  CHANNELS 6 Xposition Yposition Zposition Zrotation Xrotation Yrotation
                  End Site
                  {
                    OFFSET 0 0 0
                  }
                }
              }
            }
          }
        }
        JOINT RightShoulder
        {
          OFFSET 0 0 0
          CHANNELS 6 Xposition Yposition Zposition Zrotation Xrotation Yrotation
          JOINT RightArm
          {
            OFFSET -3.1366 1.37405 -0.40465
            CHANNELS 6 Xposition Yposition Zposition Zrotation Xrotation Yrotation
            JOINT RightForeArm
            {
              OFFSET -5.2419 0 0
              CHANNELS 6 Xposition Yposition Zposition Zrotation Xrotation Yrotation
              JOINT RightHand
              {
                OFFSET -3.44417 0 0
                CHANNELS 6 Xposition Yposition Zposition Zrotation Xrotation Yrotation
                JOINT RightFingerBase
                {
                  OFFSET 0 0 0
                  CHANNELS 6 Xposition Yposition Zposition Zrotation Xrotation Yrotation
                  JOINT RightHandIndex1
                  {
                    OFFSET -0.62253 0 0
                    CHANNELS 6 Xposition Yposition Zposition Zrotation Xrotation Yrotation
                    End Site
                    {
                      OFFSET 0 0 0
                    }
                  }
                }
                JOINT RThumb
                {
                  OFFSET 0 0 0
                  CHANNELS 6 Xposition Yposition Zposition Zrotation Xrotation Yrotation
                  End Site
                  {
                    OFFSET 0 0 0
                  }
                }
              }
            }
          }
        }
      }
    }
  }
}
MOTION
Frames:	5
Frame Time:	0.00833333
0.17019 16.2858 41.8172 2.80764 10.5748 -2.58285 0 0 0 -0.299681 5.35791 18.0368 1.36306 -1.79463 0.83929 -59.6651 -49.9469 -43.8546 2.44811 -6.72613 0 -1.7297 62.2021 34.8405 2.5622 -7.03959 -7.10543e-015 1.49057 13.5091 0.880239 0.15764 -0.43311 2.32255 -3.46654 21.5406 7.80493 0 0 0 -8.85582 0.425549 -20.6242 -1.30552 -1.79463 0.83929 22.7118 -14.1442 11.7532 -2.54253 -6.98555 7.10543e-015 -7.33693 35.9922 -69.6835 -2.56826 -7.05623 0 23.399 18.4292 -3.8219 -0.16473 -0.45259 2.36315 0.111524 -2.75453 0.982767 0 0 0 -1.93281 -2.12354 0.12108 0.02827 2.03559 -0.19338 5.71768 25.6673 -1.77969 0.05672 2.04885 -0.04275 -1.97137 -6.10915 -0.431362 0 0 0 -2.08068 -13.3061 -0.43145 -0.05417 1.74624 0.17202 1.43385 23.507 -1.3589 0.10407 1.76136 -0.12397 0.948861 -4.23579 -2.17446 0 0 0 14.6574 -8.95447 10.3916 3.36241 1.20089 -0.31121 -63.3637 6.4817 7.56041 4.983 0 -3.55271e-015 -36.499 23.3039 -65.7212 3.48356 0 0 -3.71758 0.997414 -5.15484 0 0 0 -0.121024 2.85552e-007 -1.14815 0.71526 0 7.10543e-015 8.94733e-007 -1.92103e-006 -2.5206e-006 0 0 0 -3.18055e-015 3.18055e-015 -0 0 0 0 -10.4591 -5.21781 -11.6903 -3.1366 1.37405 -0.40465 64.0247 10.4182 0.305854 -5.2419 0 0 18.1714 35.1058 84.46 -3.44417 0 0 19.1182 -10.8053 -18.1268 0 0 0 0.388202 -2.00681e-006 2.4941 -0.62253 0 0 4.87542e-006 -1.45026e-006 4.4143e-006 0 0 0 3.53113e-031 3.18055e-015 -6.36111e-015 
0.184477 16.223 41.9481 3.01063 10.7689 -2.54291 0 0 0 -0.299681 5.35791 18.0368 1.36306 -1.79463 0.83929 -60.8232 -49.9474 -45.0169 2.44811 -6.72613 0 -0.475666 59.1524 32.9823 2.5622 -7.03959 7.10543e-015 1.69348 13.1731 0.707318 0.15764 -0.43311 2.32255 -2.82717 23.4512 8.94663 0 0 0 -8.85582 0.425549 -20.6242 -1.30552 -1.79463 0.83929 22.2519 -13.9014 11.4962 -2.54253 -6.98555 0 -7.27189 36.1614 -69.206 -2.56826 -7.05623 0 24.6555 18.1702 -3.83745 -0.16473 -0.45259 2.36315 0.128891 -3.0994 1.10637 0 0 0 -1.93281 -2.12354 0.12108 0.02827 2.03559 -0.19338 5.90257 25.727 -1.77909 0.05672 2.04885 -0.04275 -2.02715 -6.01348 -0.442985 0 0 0 -2.07892 -13.1977 -0.456927 -0.05417 1.74624 0.17202 1.44993 23.6142 -1.39211 0.10407 1.76136 -0.12397 0.906782 -4.45912 -2.26843 0 0 0 14.7917 -8.85014 10.0949 3.36241 1.20089 -0.31121 -62.8195 6.72632 6.8344 4.983 -3.55271e-015 0 -36.4858 22.8978 -65.272 3.48356 0 -7.10543e-015 -3.72884 0.993169 -5.14064 0 0 0 -0.121024 2.85552e-007 -1.14815 0.71526 3.55271e-015 -7.10543e-015 8.94733e-007 -1.92103e-006 -2.5206e-006 0 0 0 1.59028e-015 0 -3.18055e-015 0 0 0 -10.5732 -4.92089 -11.9949 -3.1366 1.37405 -0.40465 62.9854 10.3451 1.01896 -5.2419 0 3.55271e-015 18.1315 35.5433 84.5986 -3.44417 3.55271e-015 7.10543e-015 19.3557 -10.8788 -18.147 0 0 0 0.388202 -2.00681e-006 2.4941 -0.62253 -3.55271e-015 0 4.87542e-006 -1.45026e-006 4.4143e-006 0 0 0 -3.97569e-015 -9.54166e-015 6.36111e-015 
0.198979 16.1651 42.0854 3.24021 10.9641 -2.50125 0 0 0 -0.299681 5.35791 18.0368 1.36306 -1.79463 0.83929 -61.5594 -49.7445 -45.7596 2.44811 -6.72613 0 0.502373 55.4265 31.1334 2.5622 -7.03959 7.10543e-015 1.70037 12.983 0.613868 0.15764 -0.43311 2.32255 -1.73124 25.428 10.3283 0 0 0 -8.85582 0.425549 -20.6242 -1.30552 -1.79463 0.83929 21.844 -13.573 11.3035 -2.54253 -6.98555 0 -7.3861 36.2284 -68.7025 -2.56826 -7.05623 0 25.8643 17.9924 -3.89951 -0.16473 -0.45259 2.36315 0.146027 -3.43125 1.22547 0 0 0 -1.93281 -2.12354 0.12108 0.02827 2.03559 -0.19338 6.06244 25.7723 -1.77426 0.05672 2.04885 -0.04275 -2.0757 -5.89841 -0.449627 0 0 0 -2.05051 -13.0324 -0.480061 -0.05417 1.74624 0.17202 1.49408 23.7783 -1.43058 0.10407 1.76136 -0.12397 0.838186 -4.66598 -2.33551 0 0 0 14.9901 -8.71425 9.83744 3.36241 1.20089 -0.31121 -62.3999 6.98874 6.0606 4.983 0 0 -36.4692 22.4326 -64.7304 3.48356 -3.55271e-015 0 -3.6851 0.962196 -5.03281 0 0 0 -0.121024 2.85552e-007 -1.14815 0.71526 0 0 8.94733e-007 -1.92103e-006 -2.5206e-006 0 0 0 3.18055e-015 0 3.18055e-015 0 0 0 -10.6806 -4.58108 -12.3055 -3.1366 1.37405 -0.40465 61.9953 10.2337 1.76319 -5.2419 0 0 18.0229 35.917 84.7108 -3.44417 0 0 19.6116 -10.9404 -18.1324 0 0 0 0.388202 -2.00681e-006 2.4941 -0.62253 0 -7.10543e-015 4.87542e-006 -1.45026e-006 4.4143e-006 0 0 0 -5.56597e-015 -6.36111e-015 -3.18055e-015 
0.213679 16.1088 42.229 3.47422 11.1429 -2.49052 0 0 0 -0.299681 5.35791 18.0368 1.36306 -1.79463 0.83929 -61.9319 -49.4347 -46.1714 2.44811 -6.72613 7.10543e-015 1.11713 51.3502 29.4555 2.5622 -7.03959 -7.10543e-015 1.70116 13.0051 0.597368 0.15764 -0.43311 2.32255 -0.646567 27.16 11.6606 0 0 0 -8.85582 0.425549 -20.6242 -1.30552 -1.79463 0.83929 21.4556 -13.1783 11.149 -2.54253 -6.98555 0 -7.5923 36.2286 -68.2201 -2.56826 -7.05623 0 27.0076 17.882 -4.00047 -0.16473 -0.45259 2.36315 0.16152 -3.71813 1.32856 0 0 0 -1.93281 -2.12354 0.12108 0.02827 2.03559 -0.19338 6.19816 25.8251 -1.76042 0.05672 2.04885 -0.04275 -2.12903 -5.77279 -0.445994 0 0 0 -1.99754 -12.8161 -0.499141 -0.05417 1.74624 0.17202 1.56319 23.9933 -1.47183 0.10407 1.76136 -0.12397 0.751611 -4.87407 -2.36823 0 0 0 15.2085 -8.54581 9.59527 3.36241 1.20089 -0.31121 -62.0986 7.21855 5.26033 4.983 0 7.10543e-015 -36.4056 21.9386 -64.1584 3.48356 0 0 -3.61753 0.88776 -4.7636 0 0 0 -0.121024 2.85552e-007 -1.14815 0.71526 0 0 8.94733e-007 -1.92103e-006 -2.5206e-006 0 0 0 3.18055e-015 3.18055e-015 -3.18055e-015 0 0 0 -10.773 -4.21926 -12.5641 -3.1366 1.37405 -0.40465 61.0663 10.0623 2.50297 -5.2419 0 0 17.8797 36.2547 84.8017 -3.44417 3.55271e-015 0 19.8519 -10.9877 -18.0973 0 0 0 0.388202 -2.00681e-006 2.4941 -0.62253 0 7.10543e-015 4.87542e-006 -1.45026e-006 4.4143e-006 0 0 0 -7.95139e-016 0 -7.95139e-016 
0.228564 16.0509 42.3791 3.6909 11.2879 -2.54348 0 0 0 -0.299681 5.35791 18.0368 1.36306 -1.79463 0.83929 -62.0082 -49.1066 -46.3471 2.44811 -6.72613 0 1.39799 47.2522 27.962 2.5622 -7.03959 0 1.88429 13.3059 0.655666 0.15764 -0.43311 2.32255 0.0309652 28.3566 12.6157 0 0 0 -8.85582 0.425549 -20.6242 -1.30552 -1.79463 0.83929 21.0546 -12.7368 11.0071 -2.54253 -6.98555 0 -7.80458 36.1993 -67.805 -2.56826 -7.05623 0 28.0681 17.8251 -4.13288 -0.16473 -0.45259 2.36315 0.173552 -3.92813 1.4041 0 0 0 -1.93281 -2.12354 0.12108 0.02827 2.03559 -0.19338 6.31057 25.9071 -1.73276 0.05672 2.04885 -0.04275 -2.1992 -5.64545 -0.426799 0 0 0 -1.92214 -12.5547 -0.512465 -0.05417 1.74624 0.17202 1.65416 24.2536 -1.51333 0.10407 1.76136 -0.12397 0.655653 -5.10112 -2.35916 0 0 0 15.4033 -8.34366 9.34429 3.36241 1.20089 -0.31121 -61.9124 7.36517 4.45525 4.983 0 7.10543e-015 -36.2552 21.4513 -63.6144 3.48356 0 0 -3.55604 0.752994 -4.26527 0 0 0 -0.121024 2.85552e-007 -1.14815 0.71526 3.55271e-015 0 8.94733e-007 -1.92103e-006 -2.5206e-006 0 0 0 1.59028e-015 6.36111e-015 3.18055e-015 0 0 0 -10.8444 -3.85593 -12.7125 -3.1366 1.37405 -0.40465 60.2108 9.80922 3.20266 -5.2419 0 3.55271e-015 17.7354 36.5837 84.8781 -3.44417 -3.55271e-015 0 20.043 -11.0186 -18.0562 0 0 0 0.388202 -2.00681e-006 2.4941 -0.62253 3.55271e-015 0 4.87542e-006 -1.45026e-006 4.4143e-006 0 0 0 2.38542e-015 3.18055e-015 -7.95139e-015 
